<svg xmlns="http://www.w3.org/2000/svg" width="66" height="66" viewBox="0 0 66 66" fill="none"><path d="M50.1868 34.4292C50.5561 34.0451 50.7624 33.5328 50.7624 32.9999C50.7624 32.467 50.5561 31.9548 50.1868 31.5706L39.6412 20.6126C38.3542 19.274 36.0937 20.1856 36.0937 22.0419L36.0937 28.3593C36.0937 28.4961 36.0394 28.6272 35.9427 28.7239C35.846 28.8206 35.7149 28.8749 35.5781 28.8749L15.4687 28.8749C14.9217 28.8749 14.3971 29.0922 14.0103 29.479C13.6235 29.8658 13.4062 30.3904 13.4062 30.9374L13.4062 35.0624C13.4062 35.6094 13.6235 36.134 14.0103 36.5208C14.3971 36.9076 14.9217 37.1249 15.4687 37.1249L35.5781 37.1249C35.7149 37.1249 35.846 37.1793 35.9427 37.2759C36.0394 37.3726 36.0937 37.5038 36.0937 37.6405L36.0937 43.958C36.0937 45.8142 38.3542 46.7259 39.6412 45.3873L50.1868 34.4292Z" fill="white"></path><path d="M63.9375 12.375C63.9375 11.0207 63.6708 9.67975 63.1525 8.42858C62.6343 7.17741 61.8746 6.04057 60.917 5.08296C58.9831 3.14899 56.36 2.0625 53.625 2.0625L12.375 2.0625C9.63995 2.0625 7.01693 3.14899 5.08296 5.08296C4.12536 6.04056 3.36574 7.1774 2.84749 8.42857C2.32924 9.67974 2.0625 11.0207 2.0625 12.375L2.0625 53.625C2.0625 56.36 3.14899 58.9831 5.08296 60.917C7.01693 62.851 9.63995 63.9375 12.375 63.9375L53.625 63.9375C54.9793 63.9375 56.3203 63.6708 57.5714 63.1525C58.8226 62.6343 59.9594 61.8746 60.917 60.917C61.8746 59.9594 62.6343 58.8226 63.1525 57.5714C63.6708 56.3203 63.9375 54.9793 63.9375 53.625L63.9375 12.375ZM53.625 6.1875C55.266 6.1875 56.8398 6.8394 58.0002 7.99978C59.1606 9.16016 59.8125 10.734 59.8125 12.375L59.8125 53.625C59.8125 55.266 59.1606 56.8398 58.0002 58.0002C56.8398 59.1606 55.266 59.8125 53.625 59.8125L12.375 59.8125C10.734 59.8125 9.16015 59.1606 7.99977 58.0002C6.83939 56.8398 6.1875 55.266 6.1875 53.625L6.1875 12.375C6.1875 10.734 6.83939 9.16016 7.99977 7.99977C9.16016 6.83939 10.734 6.1875 12.375 6.1875L53.625 6.1875Z" fill="white"></path></svg>