<svg xmlns="http://www.w3.org/2000/svg" width="66" height="66" viewBox="0 0 66 66" fill="none"><path d="M15.8132 31.5708C15.4439 31.9549 15.2377 32.4672 15.2377 33.0001C15.2377 33.533 15.4439 34.0452 15.8132 34.4294L26.3588 45.3874C27.6458 46.726 29.9063 45.8144 29.9063 43.9581L29.9063 37.6407C29.9063 37.5039 29.9606 37.3728 30.0573 37.2761C30.154 37.1794 30.2852 37.1251 30.4219 37.1251L50.5313 37.1251C51.0783 37.1251 51.6029 36.9078 51.9897 36.521C52.3765 36.1342 52.5938 35.6096 52.5938 35.0626L52.5938 30.9376C52.5938 30.3906 52.3765 29.866 51.9897 29.4792C51.6029 29.0924 51.0783 28.8751 50.5313 28.8751L30.4219 28.8751C30.2852 28.8751 30.154 28.8207 30.0573 28.724C29.9606 28.6274 29.9063 28.4962 29.9063 28.3594L29.9063 22.042C29.9063 20.1858 27.6458 19.2741 26.3588 20.6127L15.8132 31.5708Z" fill="white"></path><path d="M2.0625 53.625C2.0625 54.9793 2.32924 56.3203 2.84749 57.5714C3.36574 58.8226 4.12536 59.9594 5.08296 60.917C7.01693 62.851 9.63996 63.9375 12.375 63.9375L53.625 63.9375C56.36 63.9375 58.9831 62.851 60.917 60.917C61.8746 59.9594 62.6343 58.8226 63.1525 57.5714C63.6708 56.3203 63.9375 54.9793 63.9375 53.625L63.9375 12.375C63.9375 9.63995 62.851 7.01693 60.917 5.08296C58.9831 3.14899 56.36 2.0625 53.625 2.0625L12.375 2.0625C11.0207 2.0625 9.67974 2.32924 8.42857 2.84749C7.1774 3.36574 6.04056 4.12536 5.08296 5.08296C4.12535 6.04057 3.36574 7.17741 2.84749 8.42858C2.32924 9.67974 2.0625 11.0207 2.0625 12.375L2.0625 53.625ZM12.375 59.8125C10.734 59.8125 9.16016 59.1606 7.99978 58.0002C6.8394 56.8398 6.1875 55.266 6.1875 53.625L6.1875 12.375C6.1875 10.734 6.83939 9.16016 7.99977 7.99977C9.16016 6.83939 10.734 6.1875 12.375 6.1875L53.625 6.1875C55.266 6.1875 56.8398 6.83939 58.0002 7.99977C59.1606 9.16015 59.8125 10.734 59.8125 12.375L59.8125 53.625C59.8125 55.266 59.1606 56.8398 58.0002 58.0002C56.8398 59.1606 55.266 59.8125 53.625 59.8125L12.375 59.8125Z" fill="white"></path></svg>