<svg xmlns="http://www.w3.org/2000/svg" width="62" height="62" viewBox="0 0 62 62" fill="none"><path d="M13.7507 29.5083C13.3814 29.8924 13.1752 30.4047 13.1752 30.9376C13.1752 31.4705 13.3814 31.9827 13.7507 32.3669L24.2963 43.3249C25.5833 44.6635 27.8438 43.7519 27.8438 41.8956L27.8438 35.5782C27.8438 35.4414 27.8981 35.3103 27.9948 35.2136C28.0915 35.1169 28.2227 35.0626 28.3594 35.0626L48.4688 35.0626C49.0158 35.0626 49.5404 34.8453 49.9272 34.4585C50.314 34.0717 50.5313 33.5471 50.5313 33.0001L50.5313 28.8751C50.5313 28.3281 50.314 27.8035 49.9272 27.4167C49.5404 27.0299 49.0158 26.8126 48.4688 26.8126L28.3594 26.8126C28.2227 26.8126 28.0915 26.7582 27.9948 26.6615C27.8981 26.5649 27.8438 26.4337 27.8438 26.2969L27.8438 19.9795C27.8438 18.1233 25.5833 17.2116 24.2963 18.5502L13.7507 29.5083Z" fill="#127BD7"></path><path d="M-4.3186e-07 51.5625C-3.75147e-07 52.9168 0.26674 54.2578 0.784992 55.5089C1.30324 56.7601 2.06286 57.8969 3.02046 58.8545C4.95443 60.7885 7.57746 61.875 10.3125 61.875L51.5625 61.875C54.2975 61.875 56.9206 60.7885 58.8545 58.8545C59.8121 57.8969 60.5718 56.7601 61.09 55.5089C61.6083 54.2578 61.875 52.9168 61.875 51.5625L61.875 10.3125C61.875 7.57745 60.7885 4.95443 58.8545 3.02046C56.9206 1.08649 54.2975 -2.47737e-06 51.5625 -2.35258e-06L10.3125 -4.70516e-07C8.95824 -4.08727e-07 7.61724 0.266739 6.36607 0.784992C5.1149 1.30324 3.97806 2.06286 3.02046 3.02046C2.06285 3.97807 1.30324 5.11491 0.78499 6.36608C0.266738 7.61724 -2.21601e-06 8.95824 -2.1593e-06 10.3125L-4.3186e-07 51.5625ZM10.3125 57.75C8.67147 57.75 7.09766 57.0981 5.93728 55.9377C4.7769 54.7773 4.125 53.2035 4.125 51.5625L4.125 10.3125C4.125 8.67147 4.77689 7.09766 5.93727 5.93727C7.09766 4.77689 8.67147 4.125 10.3125 4.125L51.5625 4.125C53.2035 4.125 54.7773 4.77689 55.9377 5.93727C57.0981 7.09765 57.75 8.67147 57.75 10.3125L57.75 51.5625C57.75 53.2035 57.0981 54.7773 55.9377 55.9377C54.7773 57.0981 53.2035 57.75 51.5625 57.75L10.3125 57.75Z" fill="#127BD7"></path></svg>