<svg xmlns="http://www.w3.org/2000/svg" width="62" height="62" viewBox="0 0 62 62" fill="none"><path d="M48.1243 32.3667C48.4936 31.9826 48.6999 31.4703 48.6999 30.9374C48.6999 30.4045 48.4936 29.8923 48.1243 29.5081L37.5787 18.5501C36.2917 17.2115 34.0312 18.1231 34.0312 19.9794L34.0312 26.2968C34.0312 26.4336 33.9769 26.5647 33.8802 26.6614C33.7835 26.7581 33.6524 26.8124 33.5156 26.8124L13.4062 26.8124C12.8592 26.8124 12.3346 27.0297 11.9478 27.4165C11.561 27.8033 11.3437 28.3279 11.3437 28.8749L11.3437 32.9999C11.3437 33.5469 11.561 34.0715 11.9478 34.4583C12.3346 34.8451 12.8592 35.0624 13.4062 35.0624L33.5156 35.0624C33.6524 35.0624 33.7835 35.1168 33.8802 35.2134C33.9769 35.3101 34.0312 35.4413 34.0312 35.578L34.0312 41.8955C34.0312 43.7517 36.2917 44.6634 37.5787 43.3248L48.1243 32.3667Z" fill="#127BD7"></path><path d="M61.875 10.3125C61.875 8.95824 61.6083 7.61725 61.09 6.36608C60.5718 5.11491 59.8121 3.97807 58.8545 3.02046C56.9206 1.08649 54.2975 -3.45727e-07 51.5625 -4.70516e-07L10.3125 -2.35258e-06C7.57745 -2.47737e-06 4.95443 1.08649 3.02046 3.02046C2.06286 3.97806 1.30324 5.1149 0.784992 6.36607C0.266739 7.61724 -3.75147e-07 8.95824 -4.3186e-07 10.3125L-2.1593e-06 51.5625C-2.27384e-06 54.2975 1.08649 56.9206 3.02046 58.8545C4.95443 60.7885 7.57745 61.875 10.3125 61.875L51.5625 61.875C52.9168 61.875 54.2578 61.6083 55.5089 61.09C56.7601 60.5718 57.8969 59.8121 58.8545 58.8545C59.8121 57.8969 60.5718 56.7601 61.09 55.5089C61.6083 54.2578 61.875 52.9168 61.875 51.5625L61.875 10.3125ZM51.5625 4.125C53.2035 4.125 54.7773 4.7769 55.9377 5.93728C57.0981 7.09766 57.75 8.67147 57.75 10.3125L57.75 51.5625C57.75 53.2035 57.0981 54.7773 55.9377 55.9377C54.7773 57.0981 53.2035 57.75 51.5625 57.75L10.3125 57.75C8.67147 57.75 7.09765 57.0981 5.93727 55.9377C4.77689 54.7773 4.125 53.2035 4.125 51.5625L4.125 10.3125C4.125 8.67147 4.77689 7.09766 5.93727 5.93727C7.09766 4.77689 8.67147 4.125 10.3125 4.125L51.5625 4.125Z" fill="#127BD7"></path></svg>